<?xml version="1.0" encoding="utf-8"?>
<!-- Generator: Adobe Illustrator 25.0.1, SVG Export Plug-In . SVG Version: 6.00 Build 0)  -->
<svg version="1.1" id="Layer_1" xmlns:bx="https://boxy-svg.com"
	 xmlns="http://www.w3.org/2000/svg" xmlns:xlink="http://www.w3.org/1999/xlink" x="0px" y="0px" viewBox="0 0 858.6 549.2"
	 style="enable-background:new 0 0 858.6 549.2;" xml:space="preserve">
<style type="text/css">
	.st0{fill:none;stroke:#000000;stroke-width:3;}
	.st1{fill:#D8D8D8;stroke:#000000;stroke-width:3;}
	.st2{fill:#333333;}
	.st3{font-family:'Helvetica';}
	.st4{font-size:24px;}
	.st5{font-size:16px;}
	.st6{fill:none;stroke:#000000;stroke-width:2;stroke-miterlimit:1.8363;}
	.st7{fill:none;stroke:#000000;stroke-width:2;}
	.st8{font-size:15.6709px;}
	.st9{font-size:18.5939px;}
	.st10{fill:none;stroke:#000000;stroke-width:2.5179;}
	.st11{fill:none;stroke:#000000;stroke-width:2;stroke-linecap:round;stroke-linejoin:round;stroke-miterlimit:4;}
	.st12{fill:none;stroke:#000000;stroke-width:2;stroke-linecap:round;stroke-linejoin:round;}
</style>
<g transform="matrix(1, 0, 0, 1, 0, -7.105427357601002e-15)">
	<g>
		<path class="st0" d="M38.7,32.2h231.2c8.6,0,15.7,7,15.7,15.7v116.7c0,8.6-7,15.7-15.7,15.7H38.7c-8.6,0-15.7-7-15.7-15.7V47.9
			C23,39.2,30,32.2,38.7,32.2z"/>
		<path class="st1" d="M24,64.6h261.1"/>
		<text transform="matrix(1 0 0 1 127.1414 57.7892)" class="st2 st3 st4">Off</text>
	</g>
	<g transform="matrix(1, 0, 0, 1, -2, 10)">
		<path class="st0" d="M112,89.3h25.1c8.6,0,15.7,7,15.7,15.7v28.6c0,8.6-7,15.7-15.7,15.7H112c-8.6,0-15.7-7-15.7-15.7v-28.6
			C96.3,96.3,103.3,89.3,112,89.3z"/>
		<text transform="matrix(1 0 0 1 119.3034 126.7652)" class="st2 st3 st5">A</text>
	</g>
	<g transform="matrix(1, 0, 0, 1, -2, 10)">
		<path class="st0" d="M229.3,102.2h25.1c8.6,0,15.7,7,15.7,15.7v28.6c0,8.6-7,15.7-15.7,15.7h-25.1c-8.6,0-15.7-7-15.7-15.7v-28.6
			C213.7,109.2,220.7,102.2,229.3,102.2z"/>
		<text transform="matrix(1 0 0 1 236.3694 137.0612)" class="st2 st3 st5">B</text>
	</g>
	<g transform="matrix(1, 0, 0, 1, -2, 10)">
		<path bx:shape="triangle 45.55 13.003 14.881 12.887 0.5 0 1@5e4c3892" d="M88.3,89.1l6.9,13.2l-14.9-0.7L88.3,89.1z"/>
		<text transform="matrix(1 0 0 1 44.7564 89.3962)" class="st2 st3 st5">flick</text>
		<path bx:shape="pie 398 546 62.697 63.697 97.418 346.405 1@eb644306" class="st6" d="M98.4,142.8c-10.6,12.2-29,13.5-41.2,3
			c-12.2-10.6-13.5-29-3-41.2c7.9-9.1,20.7-12.5,32.1-8.3l-0.2,0.4c-14.9-5.4-31.5,2.3-36.9,17.3s2.3,31.5,17.3,36.9
			c11.2,4.1,23.7,0.8,31.5-8.2L98.4,142.8z"/>
	</g>
	<g transform="matrix(1, 0, 0, 1, -2, 10)">
		<text transform="matrix(1 0 0 1 161.6364 94.0652)" class="st2 st3 st5">after 2 s</text>
		<path class="st7" d="M153.1,110.8c0,0,7.1-12.8,22.7-13.2s27.5,8.4,27.5,8.4"/>
		<path bx:shape="triangle 45.55 13.003 14.881 12.887 0.5 0 1@5e4c3892" d="M206.2,99.2l6.9,13.2l-14.9-0.7L206.2,99.2z"/>
	</g>
	<g transform="matrix(1, 0, 0, 1, -83.733116, -22.002293)">
		<ellipse cx="172.8" cy="102" rx="7.3" ry="7.3"/>
		<path class="st7" d="M178.3,98c0,0,5.5-4.4,15.1-0.8s10.2,11.8,10.2,11.8"/>
		<path bx:shape="triangle 45.55 13.003 14.881 12.887 0.5 0 1@5e4c3892" d="M210.7,106l-5,14l-9.6-11.4L210.7,106z"/>
	</g>
</g>
<g transform="matrix(1, 0, 0, 1, 189.96713256835935, 57.20753860473633)">
	<path class="st0" d="M197,106.3H636c8.6,0,15.7,7,15.7,15.7v337.5c0,8.6-7,15.7-15.7,15.7H197c-8.6,0-15.7-7-15.7-15.7V121.9
		C181.3,113.3,188.3,106.3,197,106.3z"/>
	<path class="st1" d="M180.3,135.4h469.5"/>
	<text transform="matrix(1 0 0 1 412.3784 128.6113)" class="st2 st3 st4">On</text>
	<g transform="matrix(1, 0, 0, 1, 113.589722, 86.11718)">
		<path class="st0" d="M112,89.3h25.1c8.6,0,15.7,7,15.7,15.7v28.6c0,8.6-7,15.7-15.7,15.7H112c-8.6,0-15.7-7-15.7-15.7v-28.6
			C96.3,96.3,103.3,89.3,112,89.3z"/>
		<text transform="matrix(1 0 0 1 119.3034 126.7652)" class="st2 st3 st5">C</text>
	</g>
	<g transform="matrix(1.088255, 0, 0, 0.979431, 105.147041, 87.333473)">
		<path class="st0" d="M220.3,103.1h249.4c8.6,0,15.7,7,15.7,15.7v243.8c0,8.6-7,15.7-15.7,15.7H220.3c-8.6,0-15.7-7-15.7-15.7
			V118.8C204.6,110.1,211.7,103.1,220.3,103.1z"/>
		<text transform="matrix(1.021 0 0 1.021 292.3518 128.9663)" class="st2 st3 st8">D</text>
		<path class="st1" d="M206.1,142.6h278.7"/>
		<text transform="matrix(0.9653 0 0 1.021 224.4086 166.873)" class="st2 st3 st9">entry / turn light on</text>
		<text transform="matrix(0.9653 0 0 1.021 224.6007 193.1159)" class="st2 st3 st9">exit / turn light off</text>
		<g transform="matrix(1.121833, 0, 0, 1.186524, 310.942169, 177.960098)">
			<path class="st10" d="M91.9,83.3H117c8.6,0,15.7,7,15.7,15.7v28.6c0,8.6-7,15.7-15.7,15.7H91.9c-8.6,0-15.7-7-15.7-15.7V98.9
				C76.2,90.3,83.2,83.3,91.9,83.3z"/>
			<text transform="matrix(0.8605 0 0 0.8605 99.1907 120.7565)" class="st2 st3 st9">F</text>
		</g>
		<g transform="matrix(0.918902, 0, 0, 1.021, 195.622757, 175.841202)">
			<text transform="matrix(1 0 0 1 232.6362 56.0654)" class="st2 st3 st5">after 0.5 s</text>
			<path class="st7" d="M182.9,82.2c0,0,20.6-32.1,43.9-25.1s23.7,28.5,23.7,28.5"/>
			<path bx:shape="triangle 45.55 13.003 14.881 12.887 0.5 0 1@5e4c3892" d="M250.1,97.1l-7.8-12.7l14.9-0.4L250.1,97.1z"/>
		</g>
		<g transform="matrix(1.121833, 0, 0, 1.186524, 139.043976, 129.335999)">
			<path class="st10" d="M91.9,83.3h92.5c8.6,0,15.7,7,15.7,15.7v82.2c0,8.6-7,15.7-15.7,15.7H91.9c-8.6,0-15.7-7-15.7-15.7V98.9
				C76.2,90.3,83.2,83.3,91.9,83.3z"/>
			<text transform="matrix(0.8605 0 0 0.8605 136.8685 105.2701)" class="st2 st3 st9">E</text>
			<g transform="matrix(1, 0, 0, 1, 52.648926, 38.037197)">
				<path class="st10" d="M91.9,83.3H117c8.6,0,15.7,7,15.7,15.7v28.6c0,8.6-7,15.7-15.7,15.7H91.9c-8.6,0-15.7-7-15.7-15.7V98.9
					C76.2,90.3,83.2,83.3,91.9,83.3z"/>
				<text transform="matrix(0.8605 0 0 0.8605 99.1907 120.756)" class="st2 st3 st9">G</text>
			</g>
			<g transform="matrix(0.819108, 0, 0, 0.860497, 49.612343, 53.377678)">
				<path bx:shape="triangle 45.55 13.003 14.881 12.887 0.5 0 1@5e4c3892" d="M88.3,89.1l6.9,13.2l-14.9-0.7L88.3,89.1z"/>
				<text transform="matrix(1 0 0 1 44.7565 89.3964)" class="st2 st3 st5">flick</text>
				<path bx:shape="pie 398 546 62.697 63.697 97.418 346.405 1@eb644306" class="st6" d="M98.4,142.8c-10.6,12.2-29,13.5-41.2,3
					c-12.2-10.6-13.5-29-3-41.2c7.9-9.1,20.7-12.5,32.1-8.3l-0.2,0.4c-14.9-5.4-31.5,2.3-36.9,17.3s2.3,31.5,17.3,36.9
					c11.2,4.1,23.7,0.8,31.5-8.2L98.4,142.8z"/>
			</g>
		</g>
		<g transform="matrix(0.918902, 0, 0, 1.021001, 55.977158, 104.368713)">
			<ellipse cx="172.8" cy="102" rx="7.3" ry="7.3"/>
			<path class="st7" d="M178.3,98c0,0,5.5-4.4,15.1-0.8s10.2,11.8,10.2,11.8"/>
			<path bx:shape="triangle 45.55 13.003 14.881 12.887 0.5 0 1@5e4c3892" d="M210.7,106l-5,14l-9.6-11.4L210.7,106z"/>
		</g>
	</g>
	<g transform="matrix(1, 0, 0, 1, 113.589722, 86.11718)">
		<text transform="matrix(1 0 0 1 161.6364 94.0652)" class="st2 st3 st5">after 0.5 s</text>
		<path class="st7" d="M153.1,110.8c0,0,7.1-12.8,22.7-13.2c15.6-0.4,27.5,8.4,27.5,8.4"/>
		<path bx:shape="triangle 45.55 13.003 14.881 12.887 0.5 0 1@5e4c3892" d="M206.2,99.2l6.9,13.2l-14.9-0.7L206.2,99.2z"/>
	</g>
	<g transform="matrix(1, 0, 0, 1, 31.8566, 54.114891)">
		<ellipse cx="172.8" cy="102" rx="7.3" ry="7.3"/>
		<path class="st7" d="M178.3,98c0,0,5.5-4.4,15.1-0.8c9.7,3.6,10.2,11.8,10.2,11.8"/>
		<path bx:shape="triangle 45.55 13.003 14.881 12.887 0.5 0 1@5e4c3892" d="M210.7,106l-5,14l-9.6-11.4L210.7,106z"/>
	</g>
</g>
<g transform="matrix(1, 0, 0, 1, 0, -7.105427357601002e-15)">
	<path class="st11" d="M371,234.7c0,0-39.9,30.7-69.6,1.3c-29.7-29.4-34.1-45.6-34.1-45.6"/>
	<text transform="matrix(1 0 0 1 272.9824 244.5812)" class="st2 st3 st5">flick</text>
	<path bx:shape="triangle 45.55 13.003 14.881 12.887 0.5 0 1@5e4c3892" d="M260.8,195.2l4.7-14.1l9.9,11.1L260.8,195.2z"/>
</g>
<g transform="matrix(1, 0, 0, 1, 0, -7.105427357601002e-15)">
	<path class="st12" d="M286.1,142.5c0,0,54.1-39.2,80.2-18.7s23.1,30.6,23.1,30.6"/>
	<path bx:shape="triangle 45.55 13.003 14.881 12.887 0.5 0 1@5e4c3892" d="M395.8,147.7l-4.8,14.1l-9.8-11.2L395.8,147.7z"/>
	<text transform="matrix(1 0 0 1 335.1894 113.2362)" class="st2 st3 st5">flick</text>
</g>
<g transform="matrix(1, 0, 0, 1, -160.04922485351562, -89.05534362792969)">
	<ellipse cx="172.8" cy="102" rx="7.3" ry="7.3"/>
	<path class="st7" d="M178.3,98c0,0,5.5-4.4,15.1-0.8s10.2,11.8,10.2,11.8"/>
	<path bx:shape="triangle 45.55 13.003 14.881 12.887 0.5 0 1@5e4c3892" d="M210.7,106l-5,14l-9.6-11.4L210.7,106z"/>
</g>
</svg>
